<svg width="695" height="851" viewBox="0 0 695 851" fill="none" xmlns="http://www.w3.org/2000/svg">
<path d="M143.667 430.955V529.147L312.776 632.794V523.692L143.667 430.955Z" fill="#181818"/>
<path d="M383.692 218.203V316.395L552.801 420.043V310.94L383.692 218.203Z" fill="#181818"/>
<path d="M383.695 114.558L383.695 8.24874e-05L836.471 267.301L836.471 370.949L754.644 425.5L836.471 480.051L836.471 589.154L383.695 851L383.695 736.442L732.823 540.058L645.541 480.051L383.695 627.34L383.695 523.692L732.823 316.398L383.695 114.558Z" fill="#181818"/>
<path d="M312.776 736.442V851L-140 583.699L-140 480.051L-58.1731 425.5L-140 370.949L-140 261.846L312.776 0V114.558L-36.3526 310.942L50.9294 370.949L312.776 223.66L312.776 327.308L-36.3526 534.602L312.776 736.442Z" fill="#181818"/>
</svg>
