<svg width="30" height="26" viewBox="0 0 30 26" fill="none" xmlns="http://www.w3.org/2000/svg">
<path d="M8.57031 13.0223V15.9895L13.6804 19.1214V15.8246L8.57031 13.0223Z" fill="#30C6EA"/>
<path d="M15.8242 6.59338V9.56052L20.9343 12.6925V9.39567L15.8242 6.59338Z" fill="#30C6EA"/>
<path d="M15.8241 3.46185L15.8241 0.000193353L29.5059 8.07738L29.5059 11.2094L27.0333 12.8578L29.5059 14.5062L29.5059 17.803L15.8241 25.7153L15.8241 22.2537L26.3739 16.3194L23.7364 14.5062L15.8241 18.9569L15.8241 15.8249L26.3739 9.56095L15.8241 3.46185Z" fill="#30C6EA"/>
<path d="M13.6818 22.2535V25.7151L0 17.6379L0 14.506L2.47261 12.8576L0 11.2092L0 7.91235L13.6818 0V3.46165L3.13197 9.39592L5.76942 11.2092L13.6818 6.75846L13.6818 9.89044L3.13197 16.1544L13.6818 22.2535Z" fill="#30C6EA"/>
</svg>
