<svg width="255" height="38" viewBox="0 0 255 38" fill="none" xmlns="http://www.w3.org/2000/svg">
<path d="M62.2884 34.4241C59.8854 34.4241 57.5107 33.9859 55.1642 33.1095C52.8178 32.2331 50.7258 31.0175 48.8882 29.4626L52.9592 24.1619C54.7685 25.632 56.4364 26.6921 57.963 27.3423C59.4896 27.9643 61.1151 28.2753 62.8396 28.2753C63.9704 28.2753 64.9316 28.1622 65.7232 27.936C66.5148 27.7099 67.1226 27.3848 67.5466 26.9607C67.9707 26.5084 68.1827 25.9854 68.1827 25.3917C68.1827 24.5719 67.8717 23.9358 67.2498 23.4835C66.6279 23.0311 65.5677 22.6778 64.0694 22.4233L57.539 21.2784C55.136 20.8543 53.2843 19.9355 51.9838 18.522C50.6834 17.1085 50.0332 15.3133 50.0332 13.1365C50.0332 11.2141 50.5138 9.56034 51.475 8.17509C52.4644 6.78985 53.8638 5.72971 55.6731 4.99469C57.5107 4.25966 59.6875 3.89214 62.2036 3.89214C64.4086 3.89214 66.6279 4.27379 68.8612 5.03709C71.0946 5.77212 73.0311 6.80398 74.6707 8.13269L70.8119 13.5182C67.7587 11.1717 64.7196 9.99852 61.6947 9.99852C60.7052 9.99852 59.843 10.1116 59.108 10.3378C58.4012 10.5357 57.8499 10.8325 57.4541 11.2283C57.0866 11.5958 56.9029 12.0481 56.9029 12.5853C56.9029 13.3203 57.1714 13.8857 57.7086 14.2815C58.274 14.6773 59.1786 14.9882 60.4225 15.2144L66.5713 16.2321C69.4266 16.6844 71.5893 17.6315 73.0593 19.0733C74.5577 20.5151 75.3068 22.3809 75.3068 24.6708C75.3068 26.678 74.7838 28.4166 73.7378 29.8867C72.6918 31.3285 71.1935 32.4451 69.2429 33.2367C67.2922 34.0283 64.974 34.4241 62.2884 34.4241ZM82.2424 34V4.3162H89.5362V34H82.2424ZM98.0633 34V4.3162H107.265L114.601 18.31L121.938 4.3162H131.14V34H124.27V13.7726L114.517 31.8797L104.763 13.6878V34H98.0633ZM139.684 34V4.3162H146.977V27.5544H162.625V34H139.684ZM170.288 34V4.3162H193.696V10.6346H177.582V15.9777H188.226V22.0841H177.582V27.6816H193.866V34H170.288ZM199.421 34L211.591 4.3162H219.945L231.946 34H224.058L221.344 26.8335H209.767L207.011 34H199.421ZM211.973 21.0239H219.181L215.619 11.5251L211.973 21.0239ZM242.78 21.1087C241.169 21.1087 239.699 20.713 238.37 19.9214C237.041 19.1298 235.981 18.0697 235.19 16.741C234.398 15.384 234.002 13.8857 234.002 12.246C234.002 10.5781 234.398 9.07974 235.19 7.75104C235.981 6.42233 237.041 5.3622 238.37 4.57063C239.699 3.77906 241.169 3.38328 242.78 3.38328C244.42 3.38328 245.89 3.77906 247.19 4.57063C248.519 5.3622 249.579 6.43647 250.371 7.79344C251.162 9.12215 251.558 10.6063 251.558 12.246C251.558 13.8857 251.162 15.384 250.371 16.741C249.579 18.0697 248.519 19.1298 247.19 19.9214C245.89 20.713 244.42 21.1087 242.78 21.1087ZM242.738 19.0309C244.038 19.0309 245.169 18.7482 246.13 18.1828C247.12 17.5891 247.897 16.7834 248.462 15.7657C249.028 14.7197 249.311 13.5464 249.311 12.246C249.311 10.9173 249.028 9.74409 248.462 8.72636C247.897 7.70863 247.12 6.91706 246.13 6.35166C245.169 5.75798 244.038 5.46114 242.738 5.46114C241.494 5.46114 240.377 5.75798 239.388 6.35166C238.398 6.91706 237.621 7.70863 237.055 8.72636C236.518 9.74409 236.25 10.9173 236.25 12.246C236.25 13.5464 236.518 14.7197 237.055 15.7657C237.621 16.7834 238.398 17.5891 239.388 18.1828C240.377 18.7482 241.494 19.0309 242.738 19.0309ZM239.6 16.1897V8.2175H243.416C244.236 8.2175 244.886 8.45779 245.367 8.93839C245.876 9.39071 246.13 9.99852 246.13 10.7618C246.13 11.2141 246.003 11.6382 245.748 12.034C245.522 12.4298 245.197 12.7407 244.773 12.9669L246.597 16.1897H244.137L242.738 13.4334H241.847V16.1897H239.6ZM242.907 9.91372H241.847V11.8644H242.865C243.572 11.8644 243.925 11.5393 243.925 10.889C243.925 10.5781 243.84 10.3378 243.671 10.1681C243.501 9.99853 243.247 9.91372 242.907 9.91372Z" fill="#232323"/>
<path d="M10.5717 18.9517V22.6111L16.8741 26.4738V22.4078L10.5717 18.9517Z" fill="#30C6EA"/>
<path d="M19.5171 11.0229V14.6824L25.8194 18.5451V14.4791L19.5171 11.0229Z" fill="#30C6EA"/>
<path d="M19.5169 7.16069L19.5169 2.89135L36.391 12.8531L36.391 16.7159L33.3415 18.7489L36.391 20.7819L36.391 24.848L19.5169 34.6064L19.5169 30.3371L32.5283 23.0182L29.2754 20.7819L19.5169 26.2711L19.5169 22.4083L32.5283 14.6829L19.5169 7.16069Z" fill="#30C6EA"/>
<path d="M16.8741 30.3369V34.6062L0 24.6444L0 20.7817L3.04953 18.7487L0 16.7156L0 12.6496L16.8741 2.89111V7.16045L3.86274 14.4793L7.11557 16.7156L16.8741 11.2265V15.0892L3.86274 22.8147L16.8741 30.3369Z" fill="#30C6EA"/>
</svg>
