<svg width="1174" height="1023" viewBox="0 0 1174 1023" fill="none" xmlns="http://www.w3.org/2000/svg">
<path d="M340.76 517.692V635.647L543.905 760.156V629.094L340.76 517.692Z" fill="#202020"/>
<path d="M629.096 262.121V380.076L832.241 504.584V373.523L629.096 262.121Z" fill="#202020"/>
<path d="M629.098 137.615L629.098 7.45206e-05L1173 321.101L1173 445.609L1074.71 511.14L1173 576.671L1173 707.732L629.098 1022.28L629.098 884.665L1048.49 648.754L943.645 576.671L629.098 753.603L629.098 629.095L1048.49 380.078L629.098 137.615Z" fill="#202020"/>
<path d="M543.905 884.665V1022.28L0 701.179L0 576.67L98.2961 511.14L0 445.609L0 314.548L543.905 0V137.615L124.508 373.525L229.358 445.609L543.905 268.676V393.184L124.508 642.201L543.905 884.665Z" fill="#202020"/>
</svg>
