<svg width="1440" height="1080" viewBox="0 0 1440 1080" fill="none" xmlns="http://www.w3.org/2000/svg">
<path d="M340.117 550.292V732.41L653.764 924.645V722.292L340.117 550.292Z" fill="#1E1E1E"/>
<path d="M785.294 155.702V337.819L1098.94 530.055V327.702L785.294 155.702Z" fill="#1E1E1E"/>
<path d="M785.298 -36.5296L785.298 -249L1625.06 246.764L1625.06 439L1473.3 540.176L1625.06 641.352L1625.06 843.705L785.298 1329.35L785.298 1116.88L1432.83 752.646L1270.94 641.352L785.298 914.529L785.298 722.293L1432.83 337.823L785.298 -36.5296Z" fill="#1E1E1E"/>
<path d="M653.764 1116.88L653.764 1329.35L-186 833.587L-186 641.352L-34.2354 540.176L-186 438.999L-186 236.647L653.764 -249V-36.5296L6.23509 327.705L168.117 438.999L653.764 165.823L653.764 358.058L6.23509 742.529L653.764 1116.88Z" fill="#1E1E1E"/>
</svg>
